# Blender v2.92.0 OBJ File: ''
# www.blender.org
mtllib doubleface.mtl
o doubleface
v 0.008765 0.432615 0.130135
v 0.008709 0.516599 0.163339
v -0.093663 0.544432 0.065020
v -0.135638 0.452147 0.055182
v 0.111415 0.544433 0.065370
v 0.008709 0.516599 0.163339
v 0.008765 0.432615 0.130135
v 0.153424 0.452148 0.055675
v 0.137519 0.513183 -0.066910
v 0.151239 0.428711 -0.094720
v 0.009252 0.449707 -0.155509
v 0.009146 0.572754 -0.093496
v 0.009252 0.449707 -0.155509
v -0.132940 0.428711 -0.095204
v -0.119316 0.513183 -0.067348
v 0.009146 0.572754 -0.093496
v 0.151239 0.428711 -0.094720
v 0.118966 0.331055 -0.067432
v 0.009220 0.332520 -0.136467
v 0.009252 0.449707 -0.155509
v 0.009220 0.332520 -0.136467
v -0.100760 0.331054 -0.067806
v -0.132940 0.428711 -0.095204
v 0.009252 0.449707 -0.155509
v -0.100760 0.331054 -0.067806
v 0.009220 0.332520 -0.136467
v 0.009076 0.196289 -0.051995
v -0.050070 0.194823 -0.014498
v 0.009076 0.196289 -0.051995
v 0.009220 0.332520 -0.136467
v 0.118966 0.331055 -0.067432
v 0.068094 0.194824 -0.014297
v 0.145661 0.320312 0.026852
v 0.118966 0.331055 -0.067432
v 0.151239 0.428711 -0.094720
v 0.153424 0.452148 0.055675
v 0.118966 0.331055 -0.067432
v 0.145661 0.320312 0.026852
v 0.110515 0.241210 0.020444
v 0.068094 0.194824 -0.014297
v -0.132940 0.428711 -0.095204
v -0.100760 0.331054 -0.067806
v -0.127776 0.320311 0.026386
v -0.135638 0.452147 0.055182
v -0.092609 0.241210 0.020098
v -0.127776 0.320311 0.026386
v -0.100760 0.331054 -0.067806
v -0.050070 0.194823 -0.014498
v 0.008765 0.233885 0.130622
v -0.092609 0.241210 0.020098
v -0.039922 0.196288 0.047531
v 0.008839 0.197752 0.087165
v 0.057735 0.196288 0.047697
v 0.110515 0.241210 0.020444
v 0.008765 0.233885 0.130622
v 0.008839 0.197752 0.087165
v -0.092609 0.241210 0.020098
v 0.008765 0.233885 0.130622
v -0.041489 0.332029 0.107588
v -0.127776 0.320311 0.026386
v 0.008796 0.319334 0.112556
v -0.041489 0.332029 0.107588
v 0.008765 0.233885 0.130622
v 0.059097 0.332030 0.107759
v 0.059097 0.332030 0.107759
v 0.008765 0.233885 0.130622
v 0.110515 0.241210 0.020444
v 0.145661 0.320312 0.026852
v -0.135638 0.452147 0.055182
v -0.127776 0.320311 0.026386
v -0.041489 0.332029 0.107588
v 0.008765 0.432615 0.130135
v 0.059097 0.332030 0.107759
v 0.145661 0.320312 0.026852
v 0.153424 0.452148 0.055675
v 0.008765 0.432615 0.130135
v 0.008765 0.432615 0.130135
v -0.041489 0.332029 0.107588
v 0.008709 0.333494 0.163338
v 0.008709 0.333494 0.163338
v 0.059097 0.332030 0.107759
v 0.008765 0.432615 0.130135
v 0.008709 0.333494 0.163338
v -0.041489 0.332029 0.107588
v 0.008796 0.319334 0.112556
v 0.008796 0.319334 0.112556
v 0.059097 0.332030 0.107759
v 0.008709 0.333494 0.163338
v 0.008835 0.582030 0.089121
v -0.093663 0.544432 0.065020
v 0.008709 0.516599 0.163339
v 0.008709 0.516599 0.163339
v 0.111415 0.544433 0.065370
v 0.008835 0.582030 0.089121
v -0.093663 0.544432 0.065020
v 0.008835 0.582030 0.089121
v 0.009146 0.572754 -0.093496
v -0.119316 0.513183 -0.067348
v 0.009146 0.572754 -0.093496
v 0.008835 0.582030 0.089121
v 0.111415 0.544433 0.065370
v 0.137519 0.513183 -0.066910
v 0.153424 0.452148 0.055675
v 0.151239 0.428711 -0.094720
v 0.137519 0.513183 -0.066910
v 0.111415 0.544433 0.065370
v -0.119316 0.513183 -0.067348
v -0.132940 0.428711 -0.095204
v -0.135638 0.452147 0.055182
v -0.093663 0.544432 0.065020
v 0.057735 0.196288 0.047697
v 0.068094 0.194824 -0.014297
v 0.110515 0.241210 0.020444
v -0.092609 0.241210 0.020098
v -0.050070 0.194823 -0.014498
v -0.039922 0.196288 0.047531
v -0.219721 0.267169 0.037459
v -0.190601 0.247789 0.008700
v -0.197585 0.278676 0.019918
v -0.214022 0.293030 0.034051
v -0.197585 0.278676 0.019918
v -0.190601 0.247789 0.008700
v -0.219706 0.270622 -0.006975
v -0.213964 0.289093 0.000359
v -0.213964 0.289093 0.000359
v -0.219706 0.270622 -0.006975
v -0.219721 0.267169 0.037459
v -0.214022 0.293030 0.034051
v -0.213964 0.289093 0.000359
v -0.214022 0.293030 0.034051
v -0.183228 0.342329 0.017991
v -0.183413 0.340391 -0.015701
v -0.167034 0.329974 0.004346
v -0.197585 0.278676 0.019918
v -0.213964 0.289093 0.000359
v -0.183413 0.340391 -0.015701
v -0.183228 0.342329 0.017991
v -0.214022 0.293030 0.034051
v -0.197585 0.278676 0.019918
v -0.167034 0.329974 0.004346
v -0.183228 0.342329 0.017991
v -0.167034 0.329974 0.004346
v -0.124458 0.359589 0.004419
v -0.124481 0.379273 0.018091
v -0.124458 0.359589 0.004419
v -0.167034 0.329974 0.004346
v -0.183413 0.340391 -0.015701
v -0.124424 0.379273 -0.015600
v -0.124424 0.379273 -0.015600
v -0.183413 0.340391 -0.015701
v -0.183228 0.342329 0.017991
v -0.124481 0.379273 0.018091
v -0.219721 0.267169 0.037459
v -0.219706 0.270622 -0.006975
v -0.190601 0.247789 0.008700
v 0.238055 0.267169 0.038239
v 0.238191 0.270622 -0.006194
v 0.232425 0.289094 0.001121
v 0.232368 0.293030 0.034812
v 0.215979 0.278677 0.020624
v 0.209033 0.247789 0.009381
v 0.238055 0.267169 0.038239
v 0.232368 0.293030 0.034812
v 0.238191 0.270622 -0.006194
v 0.209033 0.247789 0.009381
v 0.215979 0.278677 0.020624
v 0.232425 0.289094 0.001121
v 0.232425 0.289094 0.001121
v 0.215979 0.278677 0.020624
v 0.185481 0.329974 0.004947
v 0.201928 0.340392 -0.015044
v 0.215979 0.278677 0.020624
v 0.232368 0.293030 0.034812
v 0.201629 0.342329 0.018647
v 0.185481 0.329974 0.004947
v 0.201629 0.342329 0.018647
v 0.232368 0.293030 0.034812
v 0.232425 0.289094 0.001121
v 0.201928 0.340392 -0.015044
v 0.201629 0.342329 0.018647
v 0.201928 0.340392 -0.015044
v 0.142939 0.379274 -0.015144
v 0.142882 0.379273 0.018547
v 0.142905 0.359590 0.004875
v 0.185481 0.329974 0.004947
v 0.201629 0.342329 0.018647
v 0.142882 0.379273 0.018547
v 0.201928 0.340392 -0.015044
v 0.185481 0.329974 0.004947
v 0.142905 0.359590 0.004875
v 0.142939 0.379274 -0.015144
v 0.238055 0.267169 0.038239
v 0.209033 0.247789 0.009381
v 0.238191 0.270622 -0.006194
v -0.104206 0.078076 0.006893
v -0.137533 0.077988 0.060547
v -0.151903 0.078338 0.010230
v -0.147331 0.078163 -0.033220
v -0.104787 0.114194 -0.011174
v -0.104206 0.078076 0.006893
v -0.147331 0.078163 -0.033220
v -0.140958 0.114063 -0.031256
v -0.141048 0.114062 0.021479
v -0.137533 0.077988 0.060547
v -0.104206 0.078076 0.006893
v -0.104787 0.114194 -0.011174
v -0.140958 0.114063 -0.031256
v -0.147331 0.078163 -0.033220
v -0.151903 0.078338 0.010230
v -0.141048 0.114062 0.021479
v -0.140958 0.114063 -0.031256
v -0.141048 0.114062 0.021479
v -0.125015 0.197871 0.018089
v -0.124926 0.197872 -0.034157
v -0.125015 0.197871 0.018089
v -0.141048 0.114062 0.021479
v -0.104787 0.114194 -0.011174
v -0.088535 0.183154 -0.014564
v -0.088535 0.183154 -0.014564
v -0.104787 0.114194 -0.011174
v -0.140958 0.114063 -0.031256
v -0.124926 0.197872 -0.034157
v -0.088535 0.183154 -0.014564
v -0.124926 0.197872 -0.034157
v -0.077453 0.250673 -0.034076
v -0.050323 0.232286 -0.014010
v -0.077543 0.250672 0.018659
v -0.125015 0.197871 0.018089
v -0.088535 0.183154 -0.014564
v -0.050323 0.232286 -0.014010
v -0.077453 0.250673 -0.034076
v -0.124926 0.197872 -0.034157
v -0.125015 0.197871 0.018089
v -0.077543 0.250672 0.018659
v -0.151903 0.078338 0.010230
v -0.137533 0.077988 0.060547
v -0.141048 0.114062 0.021479
v -0.141048 0.114062 0.021479
v -0.104787 0.114194 -0.011174
v -0.140958 0.114063 -0.031256
v -0.124926 0.197872 -0.034157
v -0.125015 0.197871 0.018089
v -0.088535 0.183154 -0.014564
v -0.077543 0.250672 0.018659
v -0.050323 0.232286 -0.014010
v -0.077453 0.250673 -0.034076
v 0.122647 0.078076 0.007280
v 0.165908 0.078164 -0.032686
v 0.170332 0.078338 0.010779
v 0.155791 0.077989 0.061047
v 0.165908 0.078164 -0.032686
v 0.122647 0.078076 0.007280
v 0.123289 0.114194 -0.010785
v 0.159528 0.114064 -0.030743
v 0.122647 0.078076 0.007280
v 0.155791 0.077989 0.061047
v 0.159438 0.114063 0.021991
v 0.123289 0.114194 -0.010785
v 0.170332 0.078338 0.010779
v 0.165908 0.078164 -0.032686
v 0.159528 0.114064 -0.030743
v 0.159438 0.114063 0.021991
v 0.143416 0.197872 0.018547
v 0.159438 0.114063 0.021991
v 0.159528 0.114064 -0.030743
v 0.143505 0.197872 -0.033699
v 0.123289 0.114194 -0.010785
v 0.159438 0.114063 0.021991
v 0.143416 0.197872 0.018547
v 0.107048 0.183154 -0.014230
v 0.159528 0.114064 -0.030743
v 0.123289 0.114194 -0.010785
v 0.107048 0.183154 -0.014230
v 0.143505 0.197872 -0.033699
v 0.096032 0.250673 -0.033780
v 0.143505 0.197872 -0.033699
v 0.107048 0.183154 -0.014230
v 0.068834 0.232287 -0.013807
v 0.107048 0.183154 -0.014230
v 0.143416 0.197872 0.018547
v 0.095943 0.250673 0.018954
v 0.068834 0.232287 -0.013807
v 0.143416 0.197872 0.018547
v 0.143505 0.197872 -0.033699
v 0.096032 0.250673 -0.033780
v 0.095943 0.250673 0.018954
v 0.155791 0.077989 0.061047
v 0.170332 0.078338 0.010779
v 0.159438 0.114063 0.021991
vt 0.499559 0.614122
vt 0.499363 0.831020
vt 0.145212 0.902900
vt 0.000000 0.664564
vt 0.854671 0.902901
vt 0.499363 0.831020
vt 0.499559 0.614122
vt 1.000000 0.664566
vt 0.944979 0.822197
vt 0.992441 0.604039
vt 0.501244 0.658264
vt 0.500878 0.976044
vt 0.501244 0.658264
vt 0.009333 0.604038
vt 0.056466 0.822196
vt 0.500878 0.976044
vt 0.992441 0.604039
vt 0.880794 0.351831
vt 0.501133 0.355615
vt 0.501244 0.658264
vt 0.501133 0.355615
vt 0.120659 0.351830
vt 0.009333 0.604038
vt 0.501244 0.658264
vt 0.120659 0.351830
vt 0.501133 0.355615
vt 0.500635 0.003784
vt 0.296022 0.000000
vt 0.500635 0.003784
vt 0.501133 0.355615
vt 0.880794 0.351831
vt 0.704806 0.000001
vt 0.973144 0.324086
vt 0.880794 0.351831
vt 0.992441 0.604039
vt 1.000000 0.664566
vt 0.880794 0.351831
vt 0.973144 0.324086
vt 0.851560 0.119798
vt 0.704806 0.000001
vt 0.009333 0.604038
vt 0.120659 0.351830
vt 0.027198 0.324085
vt 0.000000 0.664564
vt 0.148858 0.119797
vt 0.027198 0.324085
vt 0.120659 0.351830
vt 0.296022 0.000000
vt 0.499558 0.100880
vt 0.148858 0.119797
vt 0.331129 0.003782
vt 0.499814 0.007565
vt 0.668967 0.003782
vt 0.851560 0.119798
vt 0.499558 0.100880
vt 0.499814 0.007565
vt 0.148858 0.119797
vt 0.499558 0.100880
vt 0.325706 0.354349
vt 0.027198 0.324085
vt 0.499664 0.321562
vt 0.325706 0.354349
vt 0.499558 0.100880
vt 0.673679 0.354349
vt 0.673679 0.354349
vt 0.499558 0.100880
vt 0.851560 0.119798
vt 0.973144 0.324086
vt 0.000000 0.664564
vt 0.027198 0.324085
vt 0.325706 0.354349
vt 0.499559 0.614122
vt 0.673679 0.354349
vt 0.973144 0.324086
vt 1.000000 0.664566
vt 0.499559 0.614122
vt 0.499559 0.614122
vt 0.325706 0.354349
vt 0.499364 0.358131
vt 0.499364 0.358131
vt 0.673679 0.354349
vt 0.499559 0.614122
vt 0.499364 0.358131
vt 0.325706 0.354349
vt 0.499664 0.321562
vt 0.499664 0.321562
vt 0.673679 0.354349
vt 0.499364 0.358131
vt 0.499800 1.000000
vt 0.145212 0.902900
vt 0.499363 0.831020
vt 0.499363 0.831020
vt 0.854671 0.902901
vt 0.499800 1.000000
vt 0.145212 0.902900
vt 0.499800 1.000000
vt 0.500878 0.976044
vt 0.056466 0.822196
vt 0.500878 0.976044
vt 0.499800 1.000000
vt 0.854671 0.902901
vt 0.944979 0.822197
vt 1.000000 0.664566
vt 0.992441 0.604039
vt 0.944979 0.822197
vt 0.854671 0.902901
vt 0.056466 0.822196
vt 0.009333 0.604038
vt 0.000000 0.664564
vt 0.145212 0.902900
vt 0.668967 0.003782
vt 0.704806 0.000001
vt 0.851560 0.119798
vt 0.148858 0.119797
vt 0.296022 0.000000
vt 0.331129 0.003782
vt 0.861485 0.401895
vt 0.863603 0.401895
vt 0.863603 0.404013
vt 0.863603 0.401895
vt 0.863603 0.404013
vt 0.861485 0.401895
vt 0.863603 0.401895
vt 0.863603 0.404013
vt 0.863603 0.401895
vt 0.863603 0.404013
vt 0.861485 0.401895
vt 0.863603 0.401895
vt 0.863603 0.404013
vt 0.863603 0.401895
vt 0.863603 0.404013
vt 0.861485 0.401895
vt 0.863603 0.401895
vt 0.863603 0.404013
vt 0.863603 0.401895
vt 0.863603 0.404013
vt 0.861485 0.401895
vt 0.863603 0.401895
vt 0.863603 0.404013
vt 0.863603 0.401895
vt 0.863603 0.404013
vt 0.861485 0.401895
vt 0.863603 0.401895
vt 0.863603 0.404013
vt 0.863603 0.401895
vt 0.863603 0.404013
vt 0.861485 0.401895
vt 0.863603 0.401895
vt 0.863603 0.404013
vt 0.863603 0.401895
vt 0.863603 0.404013
vt 0.861485 0.401895
vt 0.863603 0.401895
vt 0.863603 0.404013
vt 0.863603 0.401895
vt 0.863603 0.404013
vt 0.861485 0.401895
vt 0.863603 0.401895
vt 0.863603 0.404013
vt 0.863603 0.401895
vt 0.863603 0.404013
vt 0.861485 0.401895
vt 0.863603 0.401895
vt 0.863603 0.404013
vt 0.861485 0.401895
vt 0.863603 0.401895
vt 0.863603 0.404013
vt 0.863603 0.401895
vt 0.863603 0.404013
vt 0.861485 0.401895
vt 0.863603 0.401895
vt 0.863603 0.404013
vt 0.863603 0.401895
vt 0.863603 0.404013
vt 0.861485 0.401895
vt 0.863603 0.401895
vt 0.863603 0.404013
vt 0.863603 0.401895
vt 0.863603 0.404013
vt 0.861485 0.401895
vt 0.863603 0.401895
vt 0.863603 0.404013
vt 0.863603 0.401895
vt 0.863603 0.404013
vt 0.861485 0.401895
vt 0.863603 0.401895
vt 0.863603 0.404013
vt 0.863603 0.401895
vt 0.863603 0.404013
vt 0.861485 0.401895
vt 0.863603 0.401895
vt 0.863603 0.404013
vt 0.863603 0.401895
vt 0.863603 0.404013
vt 0.861485 0.401895
vt 0.863603 0.401895
vt 0.863603 0.404013
vt 0.863603 0.401895
vt 0.863603 0.404013
vt 0.861485 0.401895
vt 0.863603 0.401895
vt 0.863603 0.404013
vt 0.863603 0.401895
vt 0.863603 0.404013
vt 0.861485 0.401895
vt 0.863603 0.401895
vt 0.863603 0.404013
vt 0.863603 0.401895
vt 0.863603 0.404013
vt 0.861485 0.401895
vt 0.863603 0.401895
vt 0.863603 0.404013
vt 0.861485 0.401895
vt 0.863603 0.401895
vt 0.863603 0.404013
vt 0.863603 0.401895
vt 0.863603 0.404013
vt 0.861485 0.401895
vt 0.863603 0.401895
vt 0.863603 0.404013
vt 0.863603 0.401895
vt 0.863603 0.404013
vt 0.861485 0.401895
vt 0.863603 0.401895
vt 0.863603 0.404013
vt 0.863603 0.401895
vt 0.863603 0.404013
vt 0.861485 0.401895
vt 0.863603 0.401895
vt 0.863603 0.404013
vt 0.863603 0.401895
vt 0.863603 0.404013
vt 0.861485 0.401895
vt 0.863603 0.401895
vt 0.863603 0.404013
vt 0.863603 0.401895
vt 0.863603 0.404013
vt 0.861485 0.401895
vt 0.863603 0.401895
vt 0.863603 0.404013
vt 0.863603 0.401895
vt 0.863603 0.404013
vt 0.861485 0.401895
vt 0.863603 0.401895
vt 0.863603 0.404013
vt 0.863603 0.401895
vt 0.863603 0.404013
vt 0.861485 0.401895
vt 0.863603 0.401895
vt 0.863603 0.404013
vt 0.863603 0.401895
vt 0.863603 0.404013
vt 0.861485 0.401895
vt 0.863603 0.401895
vt 0.863603 0.404013
vt 0.863603 0.401895
vt 0.863603 0.404013
vt 0.861485 0.401895
vt 0.863603 0.401895
vt 0.863603 0.404013
vt 0.863603 0.401895
vt 0.863603 0.404013
vt 0.861485 0.401895
vt 0.863603 0.401895
vt 0.863603 0.404013
vt 0.861485 0.401895
vt 0.863603 0.401895
vt 0.863603 0.404013
vt 0.861485 0.401895
vt 0.863603 0.401895
vt 0.863603 0.404013
vt 0.861485 0.401895
vt 0.863603 0.401895
vt 0.863603 0.404013
vt 0.861485 0.401895
vt 0.863603 0.401895
vt 0.863603 0.404013
vt 0.863603 0.401895
vt 0.863603 0.404013
vt 0.861485 0.401895
vt 0.863603 0.401895
vt 0.863603 0.404013
vt 0.863603 0.401895
vt 0.863603 0.404013
vt 0.861485 0.401895
vt 0.863603 0.401895
vt 0.863603 0.404013
vt 0.863603 0.401895
vt 0.863603 0.404013
vt 0.861485 0.401895
vt 0.863603 0.401895
vt 0.863603 0.404013
vt 0.863603 0.401895
vt 0.863603 0.404013
vt 0.861485 0.401895
vt 0.863603 0.401895
vt 0.863603 0.404013
vt 0.863603 0.401895
vt 0.863603 0.404013
vt 0.861485 0.401895
vt 0.863603 0.401895
vt 0.863603 0.404013
vt 0.863603 0.401895
vt 0.863603 0.404013
vt 0.861485 0.401895
vt 0.863603 0.401895
vt 0.863603 0.404013
vt 0.863603 0.401895
vt 0.863603 0.404013
vt 0.861485 0.401895
vt 0.863603 0.401895
vt 0.863603 0.404013
vt 0.863603 0.401895
vt 0.863603 0.404013
vt 0.861485 0.401895
vt 0.863603 0.401895
vt 0.863603 0.404013
vt 0.863603 0.401895
vt 0.863603 0.404013
vt 0.861485 0.401895
vt 0.863603 0.401895
vt 0.863603 0.404013
vt 0.863603 0.401895
vt 0.863603 0.404013
vt 0.861485 0.401895
vt 0.863603 0.401895
vt 0.863603 0.404013
vn -0.7046 -0.2613 0.6597
vn -0.4464 0.1083 0.8883
vn 0.7024 -0.2613 0.6621
vn 0.4434 0.1083 0.8898
vn 0.4121 0.3446 -0.8435
vn 0.3665 0.4190 -0.8307
vn -0.4092 0.3446 -0.8449
vn -0.3636 0.4190 -0.8320
vn 0.4887 -0.3808 -0.7850
vn 0.3705 -0.1491 -0.9168
vn -0.4860 -0.3808 -0.7866
vn -0.3673 -0.1491 -0.9181
vn -0.4647 -0.4670 -0.7523
vn -0.4639 -0.4665 -0.7531
vn -0.4641 -0.4668 -0.7528
vn -0.4651 -0.4673 -0.7519
vn 0.4672 -0.4669 -0.7508
vn 0.4665 -0.4665 -0.7515
vn 0.4674 -0.4671 -0.7506
vn 0.4677 -0.4673 -0.7503
vn 0.8809 -0.3727 -0.2919
vn 0.9983 -0.0576 -0.0055
vn 0.8826 -0.3685 -0.2919
vn 0.8064 -0.4505 -0.3831
vn -0.8799 -0.3727 -0.2949
vn -0.9983 -0.0576 -0.0089
vn -0.8816 -0.3685 -0.2949
vn -0.8051 -0.4505 -0.3858
vn -0.6783 -0.4332 0.5935
vn -0.4445 -0.6892 0.5723
vn 0.6763 -0.4332 0.5958
vn 0.4425 -0.6892 0.5738
vn -0.7263 -0.2189 0.6516
vn -0.6219 -0.3328 0.7089
vn -0.0444 0.2067 0.9774
vn 0.0411 0.2067 0.9776
vn 0.7240 -0.2189 0.6541
vn 0.6195 -0.3328 0.7110
vn -0.6574 -0.1980 0.7271
vn -0.4574 0.0293 0.8888
vn 0.6549 -0.1980 0.7293
vn 0.4543 0.0293 0.8904
vn -0.7281 0.2181 0.6499
vn 0.7259 0.2181 0.6523
vn -0.2604 -0.9301 0.2589
vn 0.2595 -0.9301 0.2598
vn -0.3956 0.6893 0.6070
vn 0.3935 0.6893 0.6083
vn -0.3339 0.9414 -0.0484
vn -0.4382 0.8901 -0.1252
vn 0.3341 0.9414 -0.0472
vn 0.4387 0.8901 -0.1237
vn 0.9840 0.1734 -0.0413
vn 0.9102 0.4055 0.0838
vn -0.9838 0.1734 -0.0447
vn -0.9105 0.4055 0.0807
vn 0.6809 -0.7206 0.1308
vn -0.6813 -0.7206 0.1285
vn 0.6548 -0.1228 0.7458
vn 0.6325 -0.0374 0.7736
vn 0.6531 0.3846 -0.6524
vn 0.7702 0.0138 -0.6377
vn -0.9571 0.2888 0.0221
vn -0.9770 0.2118 -0.0264
vn -0.8554 0.5143 -0.0616
vn -0.8623 0.5059 -0.0244
vn 0.5058 -0.5130 -0.6935
vn 0.5048 -0.5117 -0.6952
vn 0.5091 -0.5173 -0.6879
vn 0.5101 -0.5186 -0.6862
vn 0.5912 -0.1092 0.7991
vn 0.5915 -0.1092 0.7989
vn 0.5909 -0.1090 0.7993
vn 0.5906 -0.1090 0.7996
vn 0.3278 -0.4733 0.8176
vn 0.3364 -0.5370 0.7736
vn 0.4266 -0.6116 -0.6663
vn 0.4264 -0.6453 -0.6338
vn -0.5497 0.8341 -0.0450
vn -0.5323 0.8465 -0.0009
vn -0.5950 -0.8013 -0.0625
vn 0.9571 0.2887 0.0254
vn 0.9770 0.2118 -0.0231
vn -0.6573 -0.1228 0.7435
vn -0.6351 -0.0374 0.7715
vn -0.6508 0.3846 -0.6546
vn -0.7680 0.0138 -0.6403
vn -0.5067 -0.5173 -0.6896
vn -0.5024 -0.5117 -0.6970
vn -0.5034 -0.5130 -0.6953
vn -0.5077 -0.5186 -0.6880
vn -0.5936 -0.1090 0.7973
vn -0.5942 -0.1092 0.7969
vn -0.5939 -0.1092 0.7971
vn -0.5933 -0.1090 0.7976
vn 0.8556 0.5143 -0.0586
vn 0.8623 0.5059 -0.0214
vn 0.5499 0.8341 -0.0431
vn 0.5323 0.8465 0.0009
vn -0.3306 -0.4733 0.8165
vn -0.3390 -0.5370 0.7725
vn -0.4243 -0.6116 -0.6678
vn -0.4243 -0.6453 -0.6352
vn 0.5952 -0.8013 -0.0604
vn -0.0052 -1.0000 0.0032
vn -0.0059 -1.0000 -0.0053
vn -0.0056 -1.0000 -0.0008
vn -0.0052 -1.0000 0.0035
vn 0.6414 -0.3350 -0.6903
vn 0.4852 -0.0383 -0.8736
vn 0.7102 0.5479 0.4420
vn 0.6242 0.3575 0.6946
vn -0.9783 0.1793 -0.1037
vn -0.9567 0.2912 -0.0016
vn -0.9822 0.1878 -0.0017
vn 0.6662 -0.0975 0.7394
vn 0.6371 -0.1127 0.7625
vn 0.4799 -0.1555 -0.8634
vn 0.4348 -0.1141 -0.8933
vn 0.3492 -0.3126 -0.8834
vn 0.4172 -0.3148 -0.8525
vn 0.4892 -0.4479 0.7484
vn 0.5536 -0.4385 0.7080
vn -0.7436 0.6686 -0.0013
vn -0.9416 0.2010 0.2703
vn -0.0036 1.0000 0.0000
vn 0.3746 0.9272 0.0007
vn 0.5605 0.8281 0.0010
vn 0.0051 -1.0000 0.0032
vn 0.0052 -1.0000 0.0035
vn 0.0056 -1.0000 -0.0008
vn 0.0059 -1.0000 -0.0052
vn -0.6390 -0.3350 -0.6924
vn -0.4822 -0.0383 -0.8752
vn -0.7117 0.5479 0.4396
vn -0.6266 0.3575 0.6925
vn 0.9787 0.1794 -0.1003
vn 0.9567 0.2912 0.0016
vn 0.9822 0.1878 0.0017
vn -0.6687 -0.0975 0.7371
vn -0.6397 -0.1127 0.7603
vn -0.4770 -0.1555 -0.8650
vn -0.4318 -0.1141 -0.8947
vn -0.3462 -0.3126 -0.8846
vn -0.4143 -0.3149 -0.8540
vn -0.4917 -0.4479 0.7467
vn -0.5560 -0.4385 0.7061
vn 0.7436 0.6686 0.0013
vn 0.9406 0.2010 0.2735
usemtl Material.001
s 1
f 1/1/1 2/2/1 3/3/1
f 1/1/2 3/3/2 4/4/2
f 5/5/3 6/6/3 7/7/3
f 5/5/4 7/7/4 8/8/4
f 9/9/5 10/10/5 11/11/5
f 9/9/6 11/11/6 12/12/6
f 13/13/7 14/14/7 15/15/7
f 13/13/8 15/15/8 16/16/8
f 17/17/9 18/18/9 19/19/9
f 17/17/10 19/19/10 20/20/10
f 21/21/11 22/22/11 23/23/11
f 21/21/12 23/23/12 24/24/12
f 25/25/13 26/26/14 27/27/15
f 25/25/13 27/27/15 28/28/16
f 29/29/17 30/30/18 31/31/19
f 29/29/17 31/31/19 32/32/20
f 33/33/21 34/34/21 35/35/21
f 33/33/22 35/35/22 36/36/22
f 37/37/23 38/38/23 39/39/23
f 37/37/24 39/39/24 40/40/24
f 41/41/25 42/42/25 43/43/25
f 41/41/26 43/43/26 44/44/26
f 45/45/27 46/46/27 47/47/27
f 45/45/28 47/47/28 48/48/28
f 49/49/29 50/50/29 51/51/29
f 49/49/30 51/51/30 52/52/30
f 53/53/31 54/54/31 55/55/31
f 53/53/32 55/55/32 56/56/32
f 57/57/33 58/58/33 59/59/33
f 57/57/34 59/59/34 60/60/34
f 61/61/35 62/62/35 63/63/35
f 61/61/36 63/63/36 64/64/36
f 65/65/37 66/66/37 67/67/37
f 65/65/38 67/67/38 68/68/38
f 69/69/39 70/70/39 71/71/39
f 69/69/40 71/71/40 72/72/40
f 73/73/41 74/74/41 75/75/41
f 73/73/42 75/75/42 76/76/42
f 77/77/43 78/78/43 79/79/43
f 80/80/44 81/81/44 82/82/44
f 83/83/45 84/84/45 85/85/45
f 86/86/46 87/87/46 88/88/46
f 89/89/47 90/90/47 91/91/47
f 92/92/48 93/93/48 94/94/48
f 95/95/49 96/96/49 97/97/49
f 95/95/50 97/97/50 98/98/50
f 99/99/51 100/100/51 101/101/51
f 99/99/52 101/101/52 102/102/52
f 103/103/53 104/104/53 105/105/53
f 103/103/54 105/105/54 106/106/54
f 107/107/55 108/108/55 109/109/55
f 107/107/56 109/109/56 110/110/56
f 111/111/57 112/112/57 113/113/57
f 114/114/58 115/115/58 116/116/58
f 117/117/59 118/118/59 119/119/59
f 117/117/60 119/120/60 120/121/60
f 121/122/61 122/123/61 123/124/61
f 121/122/62 123/125/62 124/126/62
f 125/127/63 126/128/63 127/129/63
f 125/127/64 127/130/64 128/131/64
f 129/132/65 130/133/65 131/134/65
f 129/132/66 131/135/66 132/136/66
f 133/137/67 134/138/68 135/139/69
f 133/137/67 135/140/69 136/141/70
f 137/142/71 138/143/72 139/144/73
f 137/142/71 139/145/73 140/146/74
f 141/147/75 142/148/75 143/149/75
f 141/147/76 143/150/76 144/151/76
f 145/152/77 146/153/77 147/154/77
f 145/152/78 147/155/78 148/156/78
f 149/157/79 150/158/79 151/159/79
f 149/157/80 151/160/80 152/161/80
f 153/162/81 154/163/81 155/164/81
f 156/165/82 157/166/82 158/167/82
f 156/165/83 158/168/83 159/169/83
f 160/170/84 161/171/84 162/172/84
f 160/170/85 162/173/85 163/174/85
f 164/175/86 165/176/86 166/177/86
f 164/175/87 166/178/87 167/179/87
f 168/180/88 169/181/89 170/182/90
f 168/180/88 170/183/90 171/184/91
f 172/185/92 173/186/93 174/187/94
f 172/185/92 174/188/94 175/189/95
f 176/190/96 177/191/96 178/192/96
f 176/190/97 178/193/97 179/194/97
f 180/195/98 181/196/98 182/197/98
f 180/195/99 182/198/99 183/199/99
f 184/200/100 185/201/100 186/202/100
f 184/200/101 186/203/101 187/204/101
f 188/205/102 189/206/102 190/207/102
f 188/205/103 190/208/103 191/209/103
f 192/210/104 193/211/104 194/212/104
f 195/213/105 196/214/106 197/215/107
f 195/213/105 197/216/107 198/217/108
f 199/218/109 200/219/109 201/220/109
f 199/218/110 201/221/110 202/222/110
f 203/223/111 204/224/111 205/225/111
f 203/223/112 205/226/112 206/227/112
f 207/228/113 208/229/113 209/230/113
f 207/228/114 209/231/114 210/232/114
f 211/233/115 212/234/115 213/235/115
f 211/233/115 213/236/115 214/237/115
f 215/238/116 216/239/116 217/240/116
f 215/238/117 217/241/117 218/242/117
f 219/243/118 220/244/118 221/245/118
f 219/243/119 221/246/119 222/247/119
f 223/248/120 224/249/120 225/250/120
f 223/248/121 225/251/121 226/252/121
f 227/253/122 228/254/122 229/255/122
f 227/253/123 229/256/123 230/257/123
f 231/258/124 232/259/124 233/260/124
f 231/258/124 233/261/124 234/262/124
f 235/263/125 236/264/125 237/265/125
f 238/266/126 239/267/126 240/268/126
f 241/269/127 242/270/127 243/271/127
f 244/272/128 245/273/128 246/274/128
f 247/275/129 248/276/130 249/277/131
f 247/275/129 249/278/131 250/279/132
f 251/280/133 252/281/133 253/282/133
f 251/280/134 253/283/134 254/284/134
f 255/285/135 256/286/135 257/287/135
f 255/285/136 257/288/136 258/289/136
f 259/290/137 260/291/137 261/292/137
f 259/290/138 261/293/138 262/294/138
f 263/295/139 264/296/139 265/297/139
f 263/295/139 265/298/139 266/299/139
f 267/300/140 268/301/140 269/302/140
f 267/300/141 269/303/141 270/304/141
f 271/305/142 272/306/142 273/307/142
f 271/305/143 273/308/143 274/309/143
f 275/310/144 276/311/144 277/312/144
f 275/310/145 277/313/145 278/314/145
f 279/315/146 280/316/146 281/317/146
f 279/315/147 281/318/147 282/319/147
f 283/320/148 284/321/148 285/322/148
f 283/320/148 285/323/148 286/324/148
f 287/325/149 288/326/149 289/327/149
